# xmcd CD database file
#
# Track frame offsets:
#	150
#	17529
#	40460
#	57271
#
# Disc length: 1082 seconds
#
# Revision: 0
# Processed by: cddbd v1.5.1PL0 Copyright (c) Steve Scherf et al.
# Submitted via: CDex 1.51
#
DISCID=2b043804
DTITLE=名取香り - Gentleman
DYEAR=2005
DGENRE=JPop
TTITLE0=Gentleman
TTITLE1=君に
TTITLE2=Passion for
TTITLE3=Smooth operator
EXTD=YEAR: 2005
EXTT0=
EXTT1=
EXTT2=
EXTT3=
PLAYORDER=
